<?xml version="1.0" standalone="no"?>
<!DOCTYPE svg PUBLIC "-//W3C//DTD SVG 20010904//EN"
 "http://www.w3.org/TR/2001/REC-SVG-20010904/DTD/svg10.dtd">
<svg version="1.0" xmlns="http://www.w3.org/2000/svg"
 width="545.000000pt" height="750.000000pt" viewBox="0 0 545.000000 750.000000"
 preserveAspectRatio="xMidYMid meet">

<g transform="translate(0.000000,750.000000) scale(0.100000,-0.100000)"
fill="#fff" stroke="none">
<path d="M1352 6147 l-1352 -1352 0 -605 0 -605 1350 1350 c742 742 1354 1351
1359 1353 5 2 624 -613 1375 -1365 l1366 -1368 0 610 0 610 -1363 1363 c-749
749 -1367 1362 -1372 1362 -6 0 -619 -609 -1363 -1353z"/>
<path d="M2217 5022 l-478 -478 -5 -2272 -5 -2272 485 0 486 0 2 758 3 757
908 3 907 2 0 -760 0 -760 465 0 465 0 0 1408 0 1407 -465 465 -465 465 0
-628 0 -627 -907 2 -908 3 -5 1503 -5 1502 -478 -478z"/>
<path d="M452 1516 l-453 -451 1 -532 0 -533 455 0 455 0 0 985 c0 542 -1 984
-2 984 -2 -1 -207 -205 -456 -453z"/>
</g>
</svg>
