<?xml version="1.0" standalone="no"?>
<!DOCTYPE svg PUBLIC "-//W3C//DTD SVG 20010904//EN"
 "http://www.w3.org/TR/2001/REC-SVG-20010904/DTD/svg10.dtd">
<svg version="1.0" xmlns="http://www.w3.org/2000/svg"
 width="365.000000pt" height="490.000000pt" viewBox="0 0 365.000000 490.000000"
 preserveAspectRatio="xMidYMid meet">

<g transform="translate(0.000000,490.000000) scale(0.100000,-0.100000)"
fill="#000000" stroke="none">
<path d="M952 3958 l-872 -873 0 -372 c0 -205 3 -373 8 -373 4 0 396 389 872
865 476 476 867 865 870 865 3 0 394 -389 870 -865 476 -476 868 -865 872
-865 5 0 8 168 8 373 l0 372 -870 870 c-479 479 -873 871 -878 872 -4 2 -400
-390 -880 -869z"/>
<path d="M1516 3261 c-159 -159 -292 -295 -297 -302 -5 -8 -9 -663 -9 -1456
l0 -1443 305 0 305 0 2 493 3 492 575 0 575 0 3 -492 2 -493 300 0 300 0 0
893 0 893 -290 290 c-160 159 -295 290 -300 292 -6 2 -11 -135 -12 -380 l-3
-383 -575 0 -575 0 -3 943 c-1 518 -6 942 -10 942 -4 0 -138 -130 -296 -289z"/>
<path d="M372 2118 l-292 -292 0 -343 c0 -189 3 -343 8 -343 4 0 139 132 300
293 l292 293 0 342 c0 188 -3 342 -8 342 -4 0 -139 -131 -300 -292z"/>
<path d="M373 1018 l-293 -292 0 -333 0 -333 300 0 300 0 0 625 c0 344 -3 625
-7 625 -5 0 -140 -132 -300 -292z"/>
</g>
</svg>
